<svg width="40" height="40" viewBox="0 0 40 40" fill="none" xmlns="http://www.w3.org/2000/svg">
<g clip-path="url(#clip0_221_3242)">
<path d="M20 0.5C25.1717 0.5 30.1321 2.55398 33.7891 6.21094C37.446 9.8679 39.5 14.8283 39.5 20C39.5 23.8567 38.3566 27.6272 36.2139 30.834C34.0712 34.0407 31.025 36.5397 27.4619 38.0156C23.8989 39.4914 19.9778 39.8774 16.1953 39.125C12.4129 38.3725 8.93892 36.5151 6.21191 33.7881C3.4849 31.0611 1.62747 27.5871 0.875 23.8047C0.122613 20.0222 0.508586 16.1012 1.98438 12.5381C3.46026 8.97499 5.95933 5.92881 9.16602 3.78613C12.3728 1.64345 16.1433 0.500001 20 0.5ZM22.5654 8.97363C21.8234 8.96874 21.0863 9.09573 20.3887 9.34863C19.2804 9.73322 18.3496 10.5073 17.7686 11.5264L17.7656 11.5312C17.2889 12.3921 17.0228 13.3516 16.9863 14.3311L16.9844 14.7373V16.5391H14.8711C14.6244 16.5391 14.3156 16.5831 14.084 16.8164C13.8535 17.0487 13.8105 17.3576 13.8105 17.6055V20.7969C13.8105 21.0393 13.8488 21.352 14.0801 21.5859C14.3127 21.821 14.6249 21.8603 14.8682 21.8604H16.9844V29.9609C16.9844 30.206 17.0287 30.5101 17.2578 30.7393C17.4871 30.9686 17.792 31.0127 18.0371 31.0127H21.332C21.5808 31.0127 21.9117 30.9803 22.1543 30.7344C22.3949 30.4903 22.4268 30.1591 22.4268 29.9102V21.8477H24.9922C25.2288 21.8462 25.551 21.8153 25.7891 21.5801C26.0297 21.3421 26.0605 21.0184 26.0605 20.7812V17.6074C26.0605 17.3606 26.0244 17.0401 25.7871 16.8018C25.549 16.5627 25.2277 16.5264 24.9814 16.5264H22.4492C22.4456 15.8939 22.4397 15.2899 22.4521 14.668V14.6582C22.4521 14.3746 22.525 14.2618 22.5781 14.2109C22.6393 14.1525 22.772 14.0823 23.0625 14.0703C23.7558 14.0419 24.4535 14.042 25.1631 14.042C25.3992 14.042 25.6924 13.9964 25.916 13.7754C26.1402 13.5537 26.1892 13.2601 26.1895 13.0176C26.1921 12.017 26.1919 11.0104 26.1787 9.99316C26.1778 9.75515 26.1272 9.46861 25.9102 9.24902C25.6899 9.02638 25.3985 8.97363 25.1523 8.97363H22.5654Z" fill="white" stroke="black"/>
</g>
<defs>
<clipPath id="clip0_221_3242">
<rect width="40" height="40" fill="white"/>
</clipPath>
</defs>
</svg>
