<svg width="40" height="40" viewBox="0 0 40 40" fill="none" xmlns="http://www.w3.org/2000/svg">
<rect x="0.5" y="0.5" width="39" height="39" rx="19.5" fill="white"/>
<rect x="0.5" y="0.5" width="39" height="39" rx="19.5" stroke="black"/>
<path d="M19.9941 7.51172V7.5127H20V7.51172C22.5038 7.51161 24.5279 7.43658 26.2568 7.66406C27.9588 7.88805 29.3097 8.40043 30.4551 9.54492C31.5864 10.6747 32.0992 11.9941 32.3271 13.6816C32.559 15.398 32.4902 17.4316 32.4902 19.998C32.4902 21.9233 32.5199 23.5104 32.4502 24.8838C32.3807 26.2521 32.2134 27.3616 31.8418 28.3223C30.9383 30.6373 29.2961 31.6684 27.2227 32.1348C25.0973 32.6127 22.5914 32.4834 19.9971 32.4834C17.3119 32.4834 14.7993 32.5985 12.6953 32.1143C10.6441 31.6422 9.04431 30.6127 8.15332 28.3213C7.78907 27.384 7.62198 26.1584 7.55078 24.7168C7.47973 23.2779 7.50586 21.6798 7.50586 19.998C7.50586 18.0819 7.47699 16.4898 7.54688 15.1113C7.61657 13.7369 7.78312 12.6232 8.15332 11.6738C8.60668 10.5112 9.23404 9.68769 9.98633 9.0957C10.7421 8.50109 11.6483 8.12065 12.6836 7.88184C14.7812 7.39803 17.2913 7.51154 19.9941 7.51172ZM25.5098 8.91992C23.8925 8.77608 21.8256 8.83836 19.2871 8.84961H18.835C16.6801 8.8518 14.9664 8.86289 13.6299 9.04883C12.2875 9.23558 11.24 9.60894 10.4824 10.4033C9.73114 11.1912 9.33676 12.3183 9.11914 13.8428C8.90111 15.3703 8.85059 17.3772 8.85059 19.9922C8.85059 22.5706 8.86898 24.5639 9.06348 26.085C9.25789 27.6052 9.63819 28.7481 10.4404 29.5498C11.2426 30.3514 12.3856 30.7316 13.9062 30.9258C15.428 31.1201 17.4224 31.1377 20.002 31.1377C21.3977 31.1377 22.7812 31.179 24.0234 31.1465C25.2723 31.1138 26.4463 31.0069 27.4629 30.6904C28.4903 30.3705 29.3749 29.8307 30.0137 28.9307C30.6474 28.0376 31.0041 26.839 31.0762 25.2637C31.2711 20.9805 31.3304 17.8135 31.1309 15.4824C30.9324 13.1643 30.4719 11.572 29.5361 10.5293C28.5853 9.47001 27.2316 9.07311 25.5098 8.91992ZM20 13.8291C23.4092 13.8291 26.1708 16.592 26.1709 19.998C26.1709 23.404 23.4093 26.165 20 26.165C16.5907 26.1649 13.8281 23.4038 13.8281 19.998C13.8282 16.5922 16.5908 13.8293 20 13.8291ZM20 15.1699C18.4299 15.17 17.2166 15.7675 16.4014 16.6914C15.5946 17.6059 15.2026 18.8105 15.2031 19.998C15.2037 21.1857 15.5973 22.3903 16.4043 23.3047C17.2196 24.2284 18.4319 24.8271 20 24.8271C21.5703 24.8271 22.7842 24.2287 23.5996 23.3047C24.4065 22.3902 24.7983 21.1857 24.7979 19.998C24.7973 18.8104 24.4047 17.6058 23.5977 16.6914C22.7822 15.7676 21.5687 15.1699 20 15.1699ZM26.9365 12.0078C27.5215 12.0078 27.9959 12.482 27.9961 13.0654C27.9961 13.6491 27.5216 14.123 26.9365 14.123C26.3516 14.1229 25.8779 13.649 25.8779 13.0654C25.8781 12.482 26.3517 12.0079 26.9365 12.0078Z" stroke="black"/>
</svg>
