<svg width="214" height="113" viewBox="0 0 214 113" fill="none" xmlns="http://www.w3.org/2000/svg">
<g clip-path="url(#clip0_221_3157)">
<mask id="mask0_221_3157" style="mask-type:luminance" maskUnits="userSpaceOnUse" x="0" y="0" width="175" height="113">
<path d="M174.141 0.197266H0V112.799H174.141V0.197266Z" fill="white"/>
</mask>
<g mask="url(#mask0_221_3157)">
<path d="M174.141 0H0V112.996H174.141V0Z" fill="#00AB4E"/>
<path d="M87.0701 52.7271C83.3043 52.7122 79.6064 51.7231 76.336 49.856C73.0657 47.9889 70.334 45.3074 68.4067 42.0721C66.4795 38.8368 65.4221 35.1579 65.3375 31.393C65.2529 27.6281 66.144 23.9054 67.924 20.5868C69.704 17.2682 72.3124 14.4667 75.4956 12.4546C78.6788 10.4425 82.3285 9.28828 86.0899 9.10421C89.8512 8.92015 93.5961 9.71247 96.9606 11.4042C100.325 13.0958 103.195 15.6293 105.29 18.7582C107.484 22.0519 108.743 25.8796 108.931 29.8326C109.12 33.7857 108.231 37.7158 106.361 41.2033C104.49 44.6909 101.708 47.605 98.31 49.6346C94.9125 51.6642 91.0276 52.733 87.0701 52.7271ZM87.0701 9.80604C82.1787 9.81368 77.4413 11.517 73.665 14.6259C69.8887 17.7347 67.3071 22.0568 66.3601 26.8556C65.413 31.6544 66.1592 36.6331 68.4713 40.9435C70.7835 45.2539 74.5186 48.6293 79.0404 50.4946C83.5622 52.3598 88.5908 52.5996 93.2695 51.1731C97.9482 49.7465 101.988 46.7418 104.699 42.671C107.411 38.6002 108.628 33.715 108.142 28.8479C107.655 23.9807 105.497 19.4327 102.033 15.9786C98.059 12.022 92.6782 9.80239 87.0701 9.80604Z" fill="#FCEE23"/>
<path d="M87.0998 9.70898L91.8987 24.4141H107.414L94.8612 33.5062L99.6529 48.2113L87.0998 39.1228L74.5466 48.2113L79.3383 33.5062L66.7852 24.4141H82.3045L87.0998 9.70898Z" fill="#FCEE23"/>
<path d="M59.1285 84.9453L58.96 85.8886H56.8905L55.9867 91.0067H54.9537L55.8611 85.8886H53.7988L53.9638 84.9453H59.1285Z" fill="white"/>
<path d="M65.2236 85.8886H61.4504L61.1528 87.5062H64.8434L64.6748 88.4494H60.9985L60.7008 90.0634H64.4776L64.309 91.0067H59.5137L60.5897 84.9453H65.3957L65.2236 85.8886Z" fill="white"/>
<path d="M70.5099 88.9838H71.5392L71.4173 89.6581C71.2559 90.5763 70.7609 91.0067 69.8105 91.0067H67.4038C66.4534 91.0067 66.1091 90.5763 66.2741 89.6581L66.8658 86.2903C67.0272 85.3757 67.5222 84.9453 68.4762 84.9453H70.8757C71.8297 84.9453 72.174 85.3757 72.0126 86.2903L71.8907 86.9646H70.8613L70.9833 86.2903C71.0299 86.0213 70.9438 85.8886 70.7107 85.8886H68.3148C68.0817 85.8886 67.9562 86.0213 67.8988 86.2903L67.307 89.6581C67.2604 89.9271 67.35 90.0634 67.5796 90.0634H69.9826C70.2122 90.0634 70.3413 89.9271 70.3951 89.6581L70.5099 88.9838Z" fill="white"/>
<path d="M78.1879 84.9453H79.2172L78.1413 91.0067H77.1119L77.5674 88.4494H74.4793L74.0274 91.0067H72.998L74.074 84.9453H75.1034L74.6515 87.5062H77.7431L78.1879 84.9453Z" fill="white"/>
<path d="M85.2032 84.9453H86.2326L85.1566 91.0067H83.3848L82.0434 85.8886H81.9573L81.0176 91.0067H79.9883L81.0643 84.9453H82.8504L84.2026 90.0634H84.285L85.2032 84.9453Z" fill="white"/>
<path d="M91.853 84.9453C92.807 84.9453 93.1513 85.3757 92.9899 86.2903L92.3981 89.6581C92.2332 90.5763 91.7418 91.0067 90.7878 91.0067H88.3847C87.4307 91.0067 87.09 90.5763 87.2513 89.6581L87.8431 86.2903C88.0045 85.3757 88.5031 84.9453 89.4535 84.9453H91.853ZM91.9606 86.2903C92.0072 86.0213 91.9175 85.8886 91.688 85.8886H89.285C89.0518 85.8886 88.9263 86.0213 88.8689 86.2903L88.2771 89.6581C88.2305 89.9271 88.3166 90.0634 88.5497 90.0634H90.9527C91.1823 90.0634 91.3114 89.9271 91.3652 89.6581L91.9606 86.2903Z" fill="white"/>
<path d="M98.9691 90.0634L98.8041 91.0067H93.998L95.074 84.9453H96.1213L95.2175 90.0634H98.9691Z" fill="white"/>
<path d="M105.064 84.9453C106.018 84.9453 106.362 85.3757 106.201 86.2903L105.609 89.6581C105.447 90.5763 104.949 91.0067 103.998 91.0067H101.595C100.645 91.0067 100.301 90.5763 100.462 89.6581L101.054 86.2903C101.219 85.3757 101.714 84.9453 102.668 84.9453H105.064ZM105.171 86.2903C105.218 86.0213 105.132 85.8886 104.899 85.8886H102.499C102.266 85.8886 102.141 86.0213 102.08 86.2903L101.502 89.6581C101.452 89.9271 101.538 90.0634 101.771 90.0634H104.174C104.404 90.0634 104.533 89.9271 104.587 89.6581L105.171 86.2903Z" fill="white"/>
<path d="M113.029 86.9643H112L112.118 86.29C112.165 86.021 112.078 85.8883 111.845 85.8883H109.446C109.213 85.8883 109.087 86.021 109.03 86.29L108.438 89.6578C108.391 89.9268 108.481 90.0631 108.711 90.0631H111.114C111.347 90.0631 111.472 89.9268 111.53 89.6578L111.741 88.4491H110.192L110.357 87.5059H112.936L112.552 89.6578C112.39 90.576 111.892 91.0064 110.942 91.0064H108.535C107.584 91.0064 107.24 90.576 107.402 89.6578L107.993 86.2756C108.155 85.3611 108.65 84.9307 109.6 84.9307H112.007C112.957 84.9307 113.302 85.3611 113.14 86.2756L113.029 86.9643Z" fill="white"/>
<path d="M120.324 84.9453L117.369 88.9623L117.01 91.0067H115.981L116.339 88.9623L114.801 84.9453H115.984L117.039 87.707H117.114L119.144 84.9453H120.324Z" fill="white"/>
<path d="M47.3053 67.1488H39.8953V58.8027H34.0742V81.0685H39.8917V72.7224H47.3017V81.0685H53.1192V58.8027H47.3053V67.1488Z" fill="#EC2227"/>
<path d="M69.9113 58.8027H62.1965C58.4915 58.8027 56.5332 60.7539 56.5332 64.4445V75.4267C56.5332 79.1173 58.4915 81.0685 62.1965 81.0685H69.9113C73.6163 81.0685 75.5746 79.1173 75.5746 75.4267V71.98H69.7571V75.4949H62.365V64.3763H69.7571V67.8912H75.5746V64.4409C75.5746 60.7539 73.6163 58.8027 69.9113 58.8027Z" fill="#EC2227"/>
<path d="M93.1511 58.8027L90.0236 68.6552L86.8673 58.8027H78.8477V81.0685H84.6652V70.3481L86.6772 76.6784H93.334L95.3748 70.3014V81.0613H101.192V58.8027H93.1511Z" fill="#EC2227"/>
<path d="M125.108 58.8564L124.373 63.0169H134.301L123.541 80.8783H128.526L139.519 61.8871L140.05 58.8672L125.108 58.8564Z" fill="white"/>
<path d="M106.343 70.6065H110.503L110.726 70.4559C111.492 69.9228 112.403 69.6374 113.337 69.6381C114.33 69.6381 115.044 69.9322 115.524 70.5384C116.005 71.1445 116.152 72.0268 115.944 73.1889C115.764 74.3465 115.22 75.4168 114.391 76.2447C114.05 76.6167 113.634 76.9135 113.172 77.1162C112.709 77.3185 112.21 77.4235 111.705 77.4247C111.381 77.4446 111.056 77.3982 110.751 77.2885C110.446 77.1787 110.166 77.0078 109.929 76.7863C109.839 76.6988 109.761 76.6 109.696 76.4922L109.399 76.0402H105.385L105.299 76.8149C105.244 77.3458 105.354 77.8807 105.615 78.3464C105.871 78.8059 106.2 79.2203 106.59 79.5731C107.806 80.667 109.402 81.2229 111.342 81.2229C113.561 81.2598 115.708 80.4417 117.339 78.9382C118.977 77.4562 120.063 75.462 120.42 73.2821C120.825 71.0333 120.402 69.179 119.179 67.7767C118.59 67.0945 117.854 66.5538 117.027 66.195C116.2 65.8336 115.304 65.6597 114.402 65.6857C113.497 65.6788 112.597 65.8256 111.741 66.1197L112.53 63.028H121.256L121.995 58.8711H109.366L106.343 70.6065Z" fill="white"/>
<path d="M15.3652 104.349V98.5674H16.7102V103.259H19.619V104.335L15.3652 104.349Z" fill="#FCEE23"/>
<path d="M19.6484 104.349L22.238 98.5672H23.5614L26.1582 104.349H24.7486L22.6253 99.2415H23.1562L21.0257 104.349H19.6484ZM20.9432 103.111L21.3019 102.093H24.2895L24.6482 103.111H20.9432ZM22.6433 98.0902L21.1405 96.8994H22.5357L23.6726 98.1117L22.6433 98.0902Z" fill="#FCEE23"/>
<path d="M26.7598 104.349V98.5674H27.8716L30.3428 102.649H29.7689L32.1971 98.5674H33.3018V104.349H32.0429V100.49H32.2796L30.3392 103.739H29.7187L27.7389 100.49H28.0223V104.349H26.7598Z" fill="#FCEE23"/>
<path d="M39.8114 104.449C39.3834 104.453 38.9583 104.38 38.5561 104.234C38.1868 104.092 37.8491 103.879 37.5626 103.606C37.2807 103.337 37.0551 103.013 36.899 102.656C36.5883 101.887 36.5883 101.028 36.899 100.26C37.0543 99.9019 37.2799 99.5787 37.5626 99.3095C37.8525 99.0377 38.194 98.8267 38.5668 98.689C38.9647 98.5401 39.3866 98.466 39.8114 98.4703C40.2781 98.4618 40.7414 98.5522 41.1707 98.7357C41.5721 98.8989 41.9261 99.1603 42.2001 99.496L41.3357 100.289C41.1533 100.074 40.927 99.902 40.6722 99.783C40.4231 99.6662 40.1509 99.6074 39.8759 99.6108C39.6211 99.6077 39.368 99.6528 39.1299 99.7435C38.9091 99.8271 38.7086 99.9567 38.5417 100.124C38.3749 100.292 38.2422 100.49 38.1508 100.708C37.9785 101.196 37.9785 101.727 38.1508 102.215C38.2422 102.433 38.3749 102.631 38.5417 102.799C38.7086 102.966 38.9091 103.096 39.1299 103.18C39.368 103.27 39.6211 103.315 39.8759 103.312C40.1502 103.316 40.422 103.26 40.6722 103.147C40.9276 103.023 41.1538 102.846 41.3357 102.627L42.2001 103.42C41.9244 103.756 41.5711 104.019 41.1707 104.187C40.7404 104.367 40.2777 104.456 39.8114 104.449Z" fill="#FCEE23"/>
<path d="M47.0925 98.5674H48.4195V104.349H47.0925V98.5674ZM44.4527 104.349H43.1113V98.5674H44.4527V104.349ZM47.1893 101.978H44.3559V100.845H47.1893V101.978Z" fill="#FCEE23"/>
<path d="M52.6264 104.449C52.1909 104.453 51.7584 104.377 51.3496 104.227C50.9751 104.085 50.6317 103.872 50.3382 103.599C50.0571 103.329 49.8316 103.006 49.6746 102.649C49.3637 101.886 49.3637 101.031 49.6746 100.267C49.8321 99.9088 50.0602 99.5856 50.3453 99.317C50.6389 99.0446 50.9823 98.8314 51.3568 98.6894C51.7605 98.5387 52.1884 98.4634 52.6193 98.467C53.0491 98.4623 53.476 98.5377 53.8782 98.6894C54.2509 98.8306 54.5921 99.0439 54.8824 99.317C55.1767 99.5917 55.41 99.9253 55.5669 100.296C55.7239 100.667 55.801 101.066 55.7934 101.469C55.7976 101.881 55.7158 102.289 55.5531 102.667C55.3968 103.026 55.1685 103.35 54.8824 103.617C54.5908 103.887 54.2498 104.098 53.8782 104.238C53.4777 104.386 53.0532 104.457 52.6264 104.449ZM52.6264 103.309C52.872 103.313 53.1158 103.268 53.3438 103.176C53.5604 103.091 53.7571 102.961 53.9212 102.796C54.0893 102.631 54.2201 102.431 54.305 102.211C54.4914 101.727 54.4914 101.19 54.305 100.705C54.2201 100.485 54.0893 100.286 53.9212 100.12C53.7616 99.9531 53.5668 99.8233 53.3509 99.7403C53.1226 99.6503 52.879 99.6052 52.6336 99.6076C52.3881 99.6046 52.1445 99.6497 51.9163 99.7403C51.7012 99.8267 51.5059 99.9561 51.3424 100.12C51.1757 100.288 51.0429 100.487 50.9515 100.705C50.8616 100.946 50.8166 101.201 50.8188 101.458C50.8177 101.715 50.8626 101.97 50.9515 102.211C51.0417 102.429 51.1719 102.627 51.3353 102.796C51.5001 102.962 51.6981 103.092 51.9163 103.176C52.14 103.265 52.3786 103.31 52.6193 103.309H52.6264Z" fill="#FCEE23"/>
<path d="M59.1543 104.349V98.5674H60.2554L63.6806 102.731H63.1426V98.5674H64.4697V104.349H63.365L59.9326 100.185H60.4742V104.349H59.1543Z" fill="#FCEE23"/>
<path d="M68.4279 104.449C68.0724 104.486 67.7134 104.442 67.377 104.322C67.0406 104.201 66.7353 104.008 66.4833 103.754C66.2314 103.501 66.0392 103.195 65.9208 102.857C65.8024 102.52 65.7607 102.161 65.7989 101.806V98.578H67.1439V101.766C67.1051 102.191 67.2252 102.616 67.481 102.957C67.7437 103.191 68.0833 103.32 68.435 103.32C68.7868 103.32 69.1264 103.191 69.3891 102.957C69.6461 102.616 69.7675 102.192 69.7298 101.766V98.578H71.0569V101.806C71.095 102.161 71.0534 102.52 70.935 102.857C70.8165 103.195 70.6243 103.501 70.3724 103.754C70.1205 104.008 69.8152 104.201 69.4787 104.322C69.1423 104.442 68.7833 104.486 68.4279 104.449ZM70.3682 99.428V98.5708H70.5906C70.6571 98.573 70.7232 98.5614 70.785 98.5367C70.8467 98.512 70.9027 98.4748 70.9493 98.4274C71.0407 98.3224 71.0882 98.1862 71.082 98.0472C71.0841 97.9538 71.067 97.861 71.0318 97.7746C71.0089 97.6935 70.9699 97.6178 70.917 97.5522L71.6809 97.2725C71.8536 97.5129 71.9464 97.8014 71.9463 98.0974C71.9576 98.276 71.9316 98.455 71.8698 98.623C71.8081 98.7909 71.712 98.9442 71.5877 99.0729C71.4495 99.1973 71.288 99.2931 71.1125 99.3547C70.9371 99.4162 70.7511 99.4424 70.5655 99.4316L70.3682 99.428Z" fill="#FCEE23"/>
<path d="M75.3189 104.449C74.8858 104.452 74.4557 104.377 74.0493 104.227C73.6748 104.085 73.3314 103.872 73.0378 103.599C72.6118 103.169 72.3217 102.623 72.2037 102.029C72.0857 101.436 72.145 100.82 72.3743 100.26C72.5301 99.9016 72.7599 99.5801 73.0486 99.3168C73.3474 99.044 73.6955 98.831 74.0744 98.6891C74.4917 98.5381 74.9326 98.4628 75.3763 98.4667C75.6571 98.4641 75.9377 98.4832 76.2156 98.5241C76.4397 98.5611 76.6663 98.5803 76.8935 98.5815C77.0696 98.592 77.2444 98.5454 77.392 98.4488C77.4537 98.4001 77.5026 98.337 77.5344 98.2652C77.5663 98.1933 77.5802 98.1148 77.5749 98.0363C77.5755 97.9431 77.5585 97.8506 77.5247 97.7638C77.4945 97.6858 77.456 97.6112 77.4099 97.5414L78.1703 97.2616C78.2544 97.3761 78.3198 97.5032 78.364 97.6382C78.4139 97.7823 78.4382 97.9341 78.4357 98.0865C78.4451 98.2668 78.4109 98.4467 78.3359 98.6109C78.261 98.7751 78.1476 98.9188 78.0053 99.0298C77.6636 99.2677 77.2518 99.384 76.8361 99.3598C76.6285 99.3599 76.4212 99.3455 76.2156 99.3168L75.6166 99.2414L77.2019 99.0442C77.4572 99.2067 77.6838 99.4103 77.8726 99.6467C78.2774 100.164 78.4972 100.801 78.4967 101.458C78.4991 101.869 78.4174 102.277 78.2564 102.656C78.0977 103.015 77.8684 103.338 77.5821 103.606C77.2919 103.876 76.952 104.087 76.5814 104.227C76.1779 104.378 75.7499 104.454 75.3189 104.449ZM75.3189 103.309C75.5645 103.313 75.8085 103.268 76.0363 103.176C76.2545 103.091 76.4524 102.962 76.6173 102.796C76.7842 102.63 76.9138 102.431 76.9975 102.211C77.0932 101.972 77.1408 101.716 77.1374 101.458C77.1402 101.204 77.0927 100.951 76.9975 100.716C76.9157 100.492 76.786 100.288 76.6173 100.12C76.4524 99.9541 76.2545 99.8245 76.0363 99.74C75.8085 99.6481 75.5645 99.603 75.3189 99.6073C75.0735 99.605 74.83 99.65 74.6016 99.74C74.3834 99.8245 74.1854 99.9541 74.0206 100.12C73.8568 100.288 73.7277 100.487 73.6404 100.705C73.5488 100.945 73.5037 101.201 73.5077 101.458C73.505 101.715 73.55 101.97 73.6404 102.211C73.7277 102.429 73.8568 102.628 74.0206 102.796C74.1854 102.962 74.3834 103.091 74.6016 103.176C74.83 103.266 75.0735 103.311 75.3189 103.309ZM74.5478 98.1117L75.6668 96.9209H77.0584L75.5592 98.1117H74.5478Z" fill="#FCEE23"/>
<path d="M82.2664 104.45C81.8397 104.454 81.4157 104.381 81.0147 104.235C80.6465 104.096 80.3099 103.885 80.0247 103.614C79.7394 103.343 79.5114 103.017 79.3541 102.657C79.0434 101.888 79.0434 101.029 79.3541 100.261C79.5106 99.9033 79.7361 99.5803 80.0176 99.3102C80.3081 99.0391 80.6495 98.8282 81.0219 98.6897C81.4218 98.5387 81.8462 98.4633 82.2736 98.4673C82.7404 98.4589 83.2037 98.5493 83.633 98.7328C84.0344 98.896 84.3883 99.1574 84.6623 99.4931L83.7979 100.286C83.6156 100.072 83.3893 99.8991 83.1344 99.78C82.8865 99.6637 82.6156 99.6049 82.3418 99.6079C82.0858 99.6046 81.8315 99.6496 81.5922 99.7406C81.3718 99.825 81.1715 99.9545 81.004 100.121C80.8372 100.288 80.7055 100.487 80.6166 100.705C80.4395 101.192 80.4395 101.725 80.6166 102.212C80.7055 102.431 80.8372 102.629 81.004 102.796C81.1715 102.963 81.3718 103.092 81.5922 103.177C81.8315 103.268 82.0858 103.313 82.3418 103.309C82.6149 103.313 82.8854 103.257 83.1344 103.144C83.3899 103.02 83.616 102.843 83.7979 102.624L84.6623 103.417C84.3867 103.753 84.0334 104.016 83.633 104.184C83.2008 104.367 82.7354 104.457 82.2664 104.45Z" fill="#FCEE23"/>
<path d="M89.6669 104.349L87.1562 98.5674H88.6088L90.7967 103.689H89.9431L92.1775 98.5674H93.5153L91.0047 104.349H89.6669Z" fill="#FCEE23"/>
<path d="M93.9688 104.349V98.5674H95.3101V104.349H93.9688Z" fill="#FCEE23"/>
<path d="M97.9405 100.895H100.734V101.939H97.9405V100.895ZM98.0409 103.276H101.201V104.352H96.7031V98.5672H101.093V99.6431H98.0409V103.276ZM98.9448 106.085C98.7949 106.088 98.6492 106.036 98.5359 105.938C98.4812 105.886 98.4381 105.823 98.4097 105.753C98.3812 105.683 98.368 105.608 98.3709 105.532C98.3688 105.454 98.3823 105.377 98.4106 105.304C98.4389 105.231 98.4815 105.165 98.5359 105.109C98.6172 105.028 98.721 104.973 98.8339 104.951C98.9469 104.93 99.0636 104.943 99.1691 104.988C99.2746 105.034 99.364 105.11 99.4257 105.207C99.4873 105.304 99.5185 105.417 99.515 105.532C99.5186 105.608 99.5057 105.683 99.4772 105.753C99.4488 105.823 99.4053 105.886 99.3501 105.938C99.2379 106.035 99.0934 106.088 98.9448 106.085ZM97.2339 98.1117L98.3315 96.9209H99.4756L100.552 98.1117H99.6047L98.4606 97.1217H99.307L98.1808 98.1117H97.2339Z" fill="#FCEE23"/>
<path d="M103.471 104.349V99.658H101.613V98.582H106.67V99.658H104.813V104.349H103.471Z" fill="#FCEE23"/>
<path d="M109.75 104.349V98.5674H110.858L114.283 102.731H113.745V98.5674H115.073V104.349H113.968L110.535 100.185H111.077V104.349H109.75Z" fill="#FCEE23"/>
<path d="M115.676 104.349L118.265 98.5674H119.589L122.186 104.349H120.776L118.653 99.2417H119.183L117.053 104.349H115.676ZM116.971 103.112L117.329 102.093H120.317L120.676 103.112H116.971Z" fill="#FCEE23"/>
<path d="M122.787 104.349V98.5674H123.899L126.37 102.649H125.782L128.21 98.5674H129.315V104.349H128.056V100.49H128.285L126.345 103.739H125.746L123.766 100.49H124.05V104.349H122.787Z" fill="#FCEE23"/>
<path d="M134.8 104.349L132.289 98.5674H133.724L135.912 103.689H135.058L137.282 98.5674H138.616L136.105 104.349H134.8Z" fill="#FCEE23"/>
<path d="M139.121 104.349V98.5671H140.466V104.349H139.121ZM140.416 98.1116C140.285 98.1144 140.156 98.0887 140.036 98.0363C139.93 97.9853 139.83 97.9253 139.734 97.8569C139.655 97.7916 139.573 97.7306 139.487 97.674C139.42 97.6231 139.338 97.5943 139.254 97.5915C139.202 97.5897 139.15 97.6001 139.103 97.6219C139.055 97.6437 139.014 97.6763 138.981 97.7171C138.902 97.8116 138.857 97.9307 138.856 98.0542H138.199C138.194 97.7403 138.291 97.4333 138.476 97.1791C138.603 97.0257 138.777 96.9185 138.972 96.8738C139.166 96.8291 139.37 96.8494 139.552 96.9316C139.658 96.9793 139.758 97.0395 139.849 97.1109L140.104 97.301C140.17 97.3472 140.249 97.3734 140.33 97.3763C140.382 97.3776 140.435 97.3681 140.483 97.3484C140.532 97.3286 140.576 97.2991 140.613 97.2616C140.686 97.1669 140.726 97.0511 140.728 96.9316H141.381C141.392 97.2403 141.295 97.5432 141.108 97.7888C141.026 97.8933 140.921 97.977 140.801 98.0331C140.68 98.0892 140.549 98.1161 140.416 98.1116Z" fill="#FCEE23"/>
<path d="M144.299 104.349V98.5675H146.936C147.512 98.5532 148.084 98.6761 148.603 98.9262C149.066 99.1463 149.457 99.4934 149.73 99.9269C149.995 100.392 150.135 100.919 150.135 101.455C150.135 101.991 149.995 102.517 149.73 102.983C149.456 103.417 149.066 103.767 148.603 103.991C148.083 104.237 147.512 104.36 146.936 104.349H144.299ZM145.641 103.252H146.871C147.217 103.26 147.56 103.187 147.872 103.036C148.15 102.897 148.381 102.679 148.535 102.409C148.701 102.12 148.784 101.791 148.776 101.458C148.785 101.125 148.702 100.796 148.535 100.508C148.381 100.239 148.15 100.023 147.872 99.8874C147.561 99.7338 147.218 99.6575 146.871 99.665H145.641V103.252ZM143.518 101.856V100.981H147.104V101.874L143.518 101.856Z" fill="#FCEE23"/>
<path d="M150.305 104.349L152.891 98.5674H154.225L156.822 104.349H155.412L153.289 99.2417H153.82L151.689 104.349H150.305ZM151.599 103.112L151.958 102.093H154.942L155.301 103.112H151.599ZM153.554 106.085C153.405 106.088 153.261 106.036 153.149 105.938C153.094 105.886 153.05 105.823 153.022 105.753C152.993 105.683 152.98 105.608 152.984 105.533C152.98 105.456 152.992 105.38 153.019 105.309C153.046 105.237 153.088 105.172 153.141 105.118C153.195 105.064 153.26 105.021 153.331 104.993C153.402 104.965 153.478 104.952 153.554 104.955C153.629 104.953 153.703 104.965 153.772 104.991C153.842 105.018 153.906 105.058 153.959 105.109C154.015 105.165 154.059 105.231 154.088 105.304C154.117 105.376 154.13 105.454 154.128 105.533C154.131 105.608 154.117 105.684 154.088 105.754C154.059 105.824 154.015 105.887 153.959 105.938C153.848 106.036 153.703 106.089 153.554 106.085Z" fill="#FCEE23"/>
<path d="M157.418 104.349V98.5674H158.759V104.349H157.418Z" fill="#FCEE23"/>
</g>
<path d="M204.937 38.2655H123.492L131.802 12.7969H213.251L204.937 38.2655Z" fill="#EC2227"/>
<path d="M134.945 29.6898V23.7673H132.6V22.0549H139.438V23.7673H137.104V29.6898H134.945Z" fill="#FCEE23"/>
<path d="M140.243 29.6898V22.0549H142.402V29.6898H140.243Z" fill="#FCEE23"/>
<path d="M143.939 29.6898V22.0549H145.717L149.927 27.1376H149.087V22.0549H151.203V29.6898H149.425L145.215 24.6072H146.055V29.6898H143.939Z" fill="#FCEE23"/>
<path d="M157.525 29.6898V23.7673H155.18V22.0549H162.019V23.7673H159.685V29.6898H157.525Z" fill="#FCEE23"/>
<path d="M166.229 29.8425C165.102 29.8425 164.222 29.5334 163.59 28.9154C162.957 28.2973 162.641 27.4211 162.641 26.2868V22.0549H164.8V26.2214C164.8 26.8758 164.928 27.3448 165.182 27.6284C165.444 27.9119 165.8 28.0537 166.251 28.0537C166.702 28.0537 167.055 27.9119 167.309 27.6284C167.564 27.3448 167.691 26.8758 167.691 26.2214V22.0549H169.818V26.2868C169.818 27.4211 169.501 28.2973 168.869 28.9154C168.236 29.5334 167.356 29.8425 166.229 29.8425ZM168.694 23.3638V22.0549H169.065C169.24 22.0549 169.385 21.9931 169.501 21.8695C169.625 21.7386 169.687 21.5714 169.687 21.3678C169.687 21.2442 169.665 21.1278 169.621 21.0188C169.585 20.9024 169.534 20.8079 169.469 20.7352L170.668 20.3098C170.785 20.4625 170.876 20.6334 170.941 20.8225C171.014 21.0115 171.05 21.2224 171.05 21.4551C171.05 22.0586 170.868 22.5276 170.505 22.862C170.141 23.1965 169.636 23.3638 168.989 23.3638H168.694ZM165.182 21.4332L166.644 19.7754H168.716L166.666 21.4332H165.182Z" fill="#FCEE23"/>
<path d="M175.258 29.8425C174.654 29.8425 174.094 29.7479 173.578 29.5589C173.069 29.3626 172.625 29.0863 172.247 28.73C171.876 28.3737 171.586 27.9556 171.375 27.4757C171.164 26.9885 171.058 26.4541 171.058 25.8724C171.058 25.2907 171.164 24.7598 171.375 24.2799C171.586 23.7928 171.876 23.371 172.247 23.0147C172.625 22.6584 173.069 22.3858 173.578 22.1967C174.094 22.0004 174.654 21.9022 175.258 21.9022C175.963 21.9022 176.592 22.0258 177.144 22.2731C177.704 22.5203 178.17 22.8766 178.541 23.3419L177.166 24.5853C176.919 24.2945 176.646 24.0727 176.348 23.92C176.057 23.7673 175.73 23.691 175.367 23.691C175.054 23.691 174.767 23.7419 174.505 23.8437C174.243 23.9455 174.018 24.0945 173.829 24.2909C173.647 24.4799 173.502 24.7089 173.392 24.978C173.291 25.247 173.24 25.5451 173.24 25.8724C173.24 26.1996 173.291 26.4977 173.392 26.7667C173.502 27.0358 173.647 27.2684 173.829 27.4648C174.018 27.6538 174.243 27.7992 174.505 27.901C174.767 28.0028 175.054 28.0537 175.367 28.0537C175.73 28.0537 176.057 27.9774 176.348 27.8247C176.646 27.672 176.919 27.4502 177.166 27.1594L178.541 28.4028C178.17 28.8608 177.704 29.2171 177.144 29.4716C176.592 29.7189 175.963 29.8425 175.258 29.8425Z" fill="#FCEE23"/>
<path d="M192.068 27.1969C191.978 27.1916 191.887 27.2057 191.802 27.2381C191.717 27.2705 191.64 27.3206 191.576 27.385C191.512 27.4494 191.462 27.5267 191.43 27.6118C191.398 27.6968 191.385 27.7877 191.39 27.8783V29.9155H190.031V27.8783C190.038 27.7849 190.025 27.6911 189.994 27.6028C189.963 27.5144 189.914 27.4334 189.85 27.3649C189.787 27.2963 189.709 27.2416 189.624 27.2042C189.538 27.1668 189.445 27.1475 189.351 27.1475C189.258 27.1475 189.165 27.1668 189.079 27.2042C188.993 27.2416 188.916 27.2963 188.852 27.3649C188.789 27.4334 188.74 27.5144 188.709 27.6028C188.677 27.6911 188.665 27.7849 188.672 27.8783V30.597C188.666 30.6875 188.679 30.7782 188.712 30.8631C188.744 30.948 188.793 31.025 188.857 31.0892C188.922 31.1533 188.999 31.203 189.083 31.2351C189.168 31.2671 189.259 31.2806 189.35 31.2749H191.39V33.3156C191.403 33.4874 191.48 33.648 191.606 33.7653C191.732 33.8825 191.898 33.9477 192.07 33.9477C192.242 33.9477 192.408 33.8825 192.534 33.7653C192.66 33.648 192.737 33.4874 192.75 33.3156V27.8783C192.755 27.7875 192.741 27.6965 192.708 27.6115C192.676 27.5265 192.626 27.4492 192.562 27.3849C192.497 27.3206 192.42 27.2705 192.335 27.2381C192.25 27.2057 192.159 27.1917 192.068 27.1969Z" fill="#FCEE23"/>
<path d="M185.271 31.2751C185.546 31.2866 185.82 31.2424 186.078 31.1452C186.335 31.0479 186.57 30.8996 186.769 30.7091C186.968 30.5186 187.126 30.2899 187.234 30.0368C187.342 29.7837 187.397 29.5113 187.397 29.2361C187.397 28.9609 187.342 28.6885 187.234 28.4354C187.126 28.1823 186.968 27.9536 186.769 27.7631C186.57 27.5726 186.335 27.4243 186.078 27.327C185.82 27.2298 185.546 27.1856 185.271 27.1971H183.912C183.74 27.2096 183.579 27.2866 183.462 27.4127C183.345 27.5388 183.28 27.7046 183.28 27.8768C183.28 28.049 183.345 28.2148 183.462 28.3408C183.579 28.4669 183.74 28.544 183.912 28.5564H185.271C185.364 28.5496 185.458 28.5622 185.546 28.5933C185.635 28.6243 185.716 28.6733 185.784 28.7371C185.853 28.8009 185.908 28.8781 185.945 28.9639C185.982 29.0498 186.002 29.1424 186.002 29.2361C186.002 29.3298 185.982 29.4224 185.945 29.5083C185.908 29.5941 185.853 29.6713 185.784 29.7351C185.716 29.7989 185.635 29.8479 185.546 29.8789C185.458 29.91 185.364 29.9226 185.271 29.9158C185.002 29.9114 184.735 29.9612 184.485 30.0623C184.236 30.1633 184.009 30.3135 183.819 30.504C183.629 30.6944 183.479 30.9212 183.379 31.1707C183.278 31.4203 183.229 31.6875 183.234 31.9566V33.3159C183.228 33.4064 183.241 33.4971 183.274 33.582C183.306 33.6669 183.355 33.7439 183.419 33.8081C183.484 33.8722 183.561 33.9219 183.645 33.954C183.73 33.986 183.821 33.9995 183.912 33.9938H186.63C186.724 34.0005 186.817 33.988 186.906 33.9569C186.994 33.9258 187.075 33.8769 187.144 33.8131C187.212 33.7493 187.267 33.6721 187.304 33.5862C187.342 33.5004 187.361 33.4077 187.361 33.3141C187.361 33.2204 187.342 33.1278 187.304 33.0419C187.267 32.9561 187.212 32.8788 187.144 32.8151C187.075 32.7513 186.994 32.7023 186.906 32.6712C186.817 32.6402 186.724 32.6276 186.63 32.6344H184.593V31.9566C184.587 31.8659 184.601 31.775 184.633 31.69C184.665 31.6049 184.715 31.5277 184.779 31.4633C184.843 31.3988 184.92 31.3488 185.005 31.3163C185.089 31.2839 185.18 31.2698 185.271 31.2751Z" fill="#FCEE23"/>
<path d="M193.428 14.9668C192.267 14.9645 191.117 15.1913 190.044 15.6344C188.971 16.0775 187.997 16.7281 187.176 17.5489C186.355 18.3697 185.705 19.3445 185.261 20.4173C184.818 21.4901 184.591 22.6399 184.594 23.8007C184.595 24.241 184.626 24.6808 184.687 25.1169C184.705 25.2062 184.74 25.2911 184.791 25.3667C184.842 25.4423 184.907 25.5072 184.982 25.5576C185.058 25.6081 185.143 25.6431 185.233 25.6607C185.322 25.6784 185.414 25.6782 185.503 25.6603C185.592 25.6424 185.677 25.6071 185.753 25.5564C185.828 25.5057 185.893 25.4406 185.944 25.3649C185.994 25.2891 186.029 25.2041 186.047 25.1148C186.064 25.0255 186.064 24.9336 186.046 24.8444C186.046 24.6399 186.021 24.6148 186.021 24.4857H187.312C187.484 24.4732 187.645 24.3962 187.762 24.2701C187.879 24.144 187.944 23.9782 187.944 23.806C187.944 23.6339 187.879 23.4681 187.762 23.342C187.645 23.2159 187.484 23.1389 187.312 23.1264H186.021C186.172 21.3926 186.93 19.7677 188.16 18.5371C189.391 17.3065 191.016 16.549 192.75 16.3979V17.6891C192.762 17.8608 192.839 18.0214 192.965 18.1387C193.091 18.2559 193.257 18.3211 193.429 18.3211C193.602 18.3211 193.767 18.2559 193.893 18.1387C194.02 18.0214 194.097 17.8608 194.109 17.6891V16.3979C195.845 16.5464 197.472 17.3022 198.705 18.5322C199.939 19.7622 200.699 21.3877 200.852 23.1228H199.561C199.467 23.116 199.374 23.1285 199.285 23.1596C199.197 23.1907 199.116 23.2396 199.047 23.3034C198.979 23.3672 198.924 23.4444 198.887 23.5303C198.849 23.6161 198.83 23.7088 198.83 23.8025C198.83 23.8961 198.849 23.9888 198.887 24.0746C198.924 24.1605 198.979 24.2377 199.047 24.3015C199.116 24.3653 199.197 24.4142 199.285 24.4453C199.374 24.4764 199.467 24.4889 199.561 24.4821H200.92C200.782 26.1264 200.095 27.6766 198.971 28.8843C197.846 30.092 196.349 30.8872 194.719 31.1425C194.542 31.1845 194.388 31.2919 194.288 31.443C194.187 31.594 194.148 31.7776 194.177 31.9566C194.205 32.1142 194.289 32.2564 194.414 32.3567C194.538 32.457 194.695 32.5086 194.855 32.5018H194.991C197.164 32.1106 199.111 30.9204 200.451 29.1655C201.79 27.4106 202.424 25.218 202.228 23.0192C202.032 20.8204 201.02 18.7746 199.391 17.2844C197.763 15.7942 195.635 14.9674 193.428 14.9668Z" fill="#FCEE23"/>
<path d="M195.472 26.5189C195.561 26.5215 195.65 26.5045 195.732 26.4692C195.814 26.4339 195.887 26.3811 195.946 26.3145C196.01 26.2532 196.061 26.1794 196.096 26.0977C196.131 26.0161 196.149 25.9281 196.149 25.8392C196.149 25.7504 196.131 25.6624 196.096 25.5807C196.061 25.499 196.01 25.4253 195.946 25.364L194.113 23.5277V20.4037C194.12 20.3103 194.107 20.2165 194.076 20.1282C194.045 20.0398 193.996 19.9588 193.932 19.8902C193.869 19.8217 193.791 19.767 193.706 19.7296C193.62 19.6922 193.527 19.6729 193.433 19.6729C193.34 19.6729 193.247 19.6922 193.161 19.7296C193.075 19.767 192.998 19.8217 192.934 19.8902C192.871 19.9588 192.822 20.0398 192.791 20.1282C192.76 20.2165 192.747 20.3103 192.754 20.4037V23.8002C192.751 23.8898 192.768 23.9789 192.803 24.0613C192.839 24.1437 192.892 24.2174 192.958 24.2773L194.995 26.3145C195.055 26.3811 195.129 26.434 195.211 26.4693C195.294 26.5046 195.383 26.5215 195.472 26.5189Z" fill="#FCEE23"/>
</g>
<defs>
<clipPath id="clip0_221_3157">
<rect width="213.25" height="113" fill="white"/>
</clipPath>
</defs>
</svg>
