<svg width="40" height="40" viewBox="0 0 40 40" fill="none" xmlns="http://www.w3.org/2000/svg">
<rect x="0.5" y="0.5" width="39" height="39" rx="19.5" fill="white"/>
<rect x="0.5" y="0.5" width="39" height="39" rx="19.5" stroke="black"/>
<path d="M23.7588 9.5C23.7701 9.62173 23.7841 9.74259 23.8027 9.8623L23.8535 10.1406C24.1604 11.6305 25.0278 12.9179 26.2285 13.793C27.154 14.4676 28.2791 14.8978 29.5 14.9893V17.5693C28.468 17.5152 27.4652 17.2927 26.5127 16.9043C25.8019 16.6142 25.1407 16.2407 24.5361 15.79L23.7344 15.1934L23.7373 16.1924L23.7559 24.2207C23.7476 25.8881 23.0663 27.4572 21.8232 28.6445C20.8101 29.6125 19.5249 30.2288 18.1289 30.4287C17.8006 30.4757 17.4661 30.5 17.1279 30.5C15.6306 30.4999 14.2141 30.0311 13.0576 29.1709C12.8399 29.0089 12.631 28.8329 12.4326 28.6436C11.0855 27.3565 10.3964 25.6205 10.5127 23.7949C10.6014 22.4074 11.1764 21.0797 12.1396 20.0371C13.4175 18.6538 15.2069 17.8829 17.1279 17.8828C17.3199 17.8828 17.5109 17.8918 17.7002 17.9072V20.4824C17.5172 20.4565 17.3302 20.4424 17.1396 20.4424C14.9997 20.4424 13.2349 22.1344 13.2676 24.249C13.2884 25.6015 14.0534 26.7721 15.1621 27.4131C15.6841 27.7149 16.2847 27.9026 16.9248 27.9365C17.425 27.9631 17.9061 27.895 18.3516 27.7529H18.3525C19.8858 27.2632 21.0105 25.8635 21.0107 24.1924L21.0156 18.8164V9.5H23.7588Z" stroke="black"/>
</svg>
