<svg width="40" height="40" viewBox="0 0 40 40" fill="none" xmlns="http://www.w3.org/2000/svg">
<g clip-path="url(#clip0_221_3239)">
<path d="M23.0107 20L18.0078 22.8809V17.1182L23.0107 20Z" fill="white" stroke="black"/>
<path d="M20 0.5C30.7679 0.5 39.5 9.23214 39.5 20C39.5 30.7679 30.7679 39.5 20 39.5C9.23214 39.5 0.5 30.7679 0.5 20C0.5 9.23214 9.23214 0.5 20 0.5ZM19.6572 10.751C19.4387 10.752 19.1248 10.7538 18.7422 10.7578C17.9762 10.7659 16.9333 10.7822 15.8291 10.8145C14.7257 10.8467 13.5566 10.8956 12.5381 10.9688C11.5336 11.0409 10.6339 11.1391 10.0938 11.2812L10.0879 11.2822C8.86626 11.6175 7.86916 12.6174 7.53516 13.8584L7.53418 13.8613C7.26211 14.8951 7.13165 16.4453 7.06738 17.7021C7.03487 18.3379 7.01886 18.9116 7.01074 19.3262C7.00669 19.5334 7.00493 19.7011 7.00391 19.8174C7.0034 19.8755 7.00306 19.9212 7.00293 19.9521V20.0479C7.00306 20.0789 7.0034 20.1252 7.00391 20.1836C7.00493 20.3004 7.00669 20.4688 7.01074 20.6768C7.01886 21.0929 7.03487 21.6686 7.06738 22.3057C7.13163 23.5646 7.26168 25.1164 7.53418 26.1406L7.53516 26.1416C7.86978 27.3838 8.84749 28.3626 10.0898 28.6973C10.6359 28.8452 11.5391 28.9474 12.5449 29.0225C13.5647 29.0985 14.7337 29.1491 15.8359 29.1826C16.9389 29.2162 17.9796 29.2328 18.7441 29.2412C19.1264 29.2454 19.4401 29.248 19.6582 29.249C19.7673 29.2495 19.8531 29.2499 19.9111 29.25H20.0898C20.148 29.2499 20.2337 29.2495 20.3428 29.249C20.5613 29.248 20.8752 29.2462 21.2578 29.2422C22.0238 29.2341 23.0667 29.2178 24.1709 29.1855C25.2743 29.1533 26.4434 29.1044 27.4619 29.0312C28.4664 28.9591 29.3661 28.8609 29.9062 28.7188L29.9092 28.7178C31.1519 28.3834 32.1301 27.4047 32.4648 26.1621L32.4658 26.1592C32.7377 25.1255 32.8674 23.5752 32.9316 22.3184C32.9641 21.6826 32.9811 21.1089 32.9893 20.6943C32.9933 20.4872 32.9951 20.3194 32.9961 20.2031C32.9966 20.145 32.9969 20.0993 32.9971 20.0684V19.8398C32.9966 19.7229 32.9954 19.5532 32.9922 19.3447C32.9857 18.9282 32.9706 18.3521 32.9395 17.7139C32.8778 16.4521 32.7486 14.8933 32.4648 13.8564H32.4639C32.1287 12.6152 31.1518 11.6372 29.9102 11.3027H29.9111C29.3694 11.1545 28.4682 11.0525 27.4639 10.9775C26.4451 10.9015 25.2753 10.8509 24.1719 10.8174C23.0677 10.7838 22.0249 10.7672 21.2588 10.7588C20.8759 10.7546 20.5614 10.752 20.3428 10.751C20.2337 10.7505 20.148 10.7501 20.0898 10.75H19.9102C19.852 10.7501 19.7663 10.7505 19.6572 10.751Z" fill="#7BF1A8" stroke="black"/>
</g>
<defs>
<clipPath id="clip0_221_3239">
<rect width="40" height="40" fill="white"/>
</clipPath>
</defs>
</svg>
